<svg width="48" height="49" viewBox="0 0 48 49" fill="none" xmlns="http://www.w3.org/2000/svg">
<path d="M22.9688 16.6719C22.9688 15.1094 22.6719 13.6406 22.0781 12.2656C21.4531 10.8906 20.6328 9.6875 19.6172 8.65625C18.6016 7.625 17.3906 6.8125 15.9844 6.21875C14.6094 5.59375 13.1406 5.28125 11.5781 5.28125C10.0156 5.28125 8.54688 5.59375 7.17188 6.21875C5.76563 6.8125 4.54688 7.625 3.51563 8.65625C2.48438 9.6875 1.67188 10.8906 1.07813 12.2656C0.484375 13.6406 0.1875 15.1094 0.1875 16.6719C0.1875 18.2656 0.484375 19.75 1.07813 21.125C1.67188 22.5 2.48438 23.7031 3.51563 24.7344C4.54688 25.7656 5.75 26.5781 7.125 27.1719C8.53125 27.7656 10.0156 28.0625 11.5781 28.0625C11.9531 28.0625 12.3281 28.0469 12.7031 28.0156C13.0781 27.9844 13.4688 27.9219 13.875 27.8281C13.5313 29.3281 13.1094 30.75 12.6094 32.0938C12.1406 33.4375 11.6406 34.6875 11.1094 35.8438C10.5781 37 10.0469 38.0625 9.51563 39.0312C8.98438 39.9688 8.53125 40.7812 8.15625 41.4688C7.9375 41.8125 7.75 42.1328 7.59375 42.4297C7.4375 42.7266 7.29688 42.9844 7.17188 43.2031C7.07813 43.3906 6.98438 43.6641 6.89063 44.0234C6.79688 44.3828 6.90625 44.6875 7.21875 44.9375C7.3125 45.0312 7.41406 45.1016 7.52344 45.1484C7.63281 45.1953 7.75 45.2188 7.875 45.2188C8.09375 45.2188 8.33594 45.1484 8.60156 45.0078C8.86719 44.8672 9.10938 44.7188 9.32813 44.5625C9.64063 44.375 10.0313 44.1172 10.5 43.7891C10.9688 43.4609 11.5781 43.0156 12.3281 42.4531L12.375 42.4062C13.7188 41.2188 14.9375 39.9297 16.0313 38.5391C17.125 37.1484 18.0938 35.6875 18.9375 34.1562C19.625 32.9062 20.2266 31.6016 20.7422 30.2422C21.2578 28.8828 21.6875 27.4844 22.0313 26.0469C22.5938 23.7344 22.8984 21.7266 22.9453 20.0234C22.9922 18.3203 23 17.2031 22.9688 16.6719ZM20.3438 25.625C19.9688 27.1562 19.5 28.6406 18.9375 30.0781C18.375 31.4844 17.7188 32.8359 16.9688 34.1328C16.2188 35.4297 15.3594 36.6562 14.3906 37.8125C13.4531 38.9688 12.4219 40.0469 11.2969 41.0469C11.1094 41.2031 10.875 41.3828 10.5938 41.5859C10.3125 41.7891 10.0156 42 9.70313 42.2188C10.1406 41.4375 10.6563 40.5156 11.25 39.4531C11.8125 38.3906 12.3906 37.2031 12.9844 35.8906C13.5781 34.5781 14.125 33.1562 14.625 31.625C15.1563 30.0938 15.5625 28.4688 15.8438 26.75L16.0781 25.2969L14.7188 25.8125C14.1875 25.9688 13.6641 26.0938 13.1484 26.1875C12.6328 26.2812 12.1094 26.3281 11.5781 26.3281C10.2656 26.3281 9.01563 26.0781 7.82813 25.5781C6.67188 25.0781 5.65625 24.3906 4.78125 23.5156C3.90625 22.6406 3.21875 21.6094 2.71875 20.4219C2.21875 19.2656 1.96875 18.0156 1.96875 16.6719C1.96875 15.3594 2.21875 14.1094 2.71875 12.9219C3.21875 11.7656 3.90625 10.75 4.78125 9.875C5.65625 9 6.67188 8.3125 7.82813 7.8125C8.98438 7.3125 10.2344 7.0625 11.5781 7.0625C12.8906 7.0625 14.1406 7.3125 15.3281 7.8125C16.4844 8.3125 17.5 9 18.375 9.875C19.25 10.75 19.9375 11.7656 20.4375 12.9219C20.9688 14.0781 21.2344 15.3281 21.2344 16.6719V16.7188C21.2344 16.75 21.2344 16.7656 21.2344 16.7656C21.2344 16.7656 21.2344 16.7812 21.2344 16.8125C21.2656 17.2812 21.2578 18.3203 21.2109 19.9297C21.1641 21.5391 20.875 23.4375 20.3438 25.625ZM47.9531 16.7188C47.9531 15.125 47.6563 13.6406 47.0625 12.2656C46.4688 10.8906 45.6563 9.6875 44.625 8.65625C43.5938 7.625 42.3906 6.8125 41.0156 6.21875C39.6094 5.625 38.125 5.32812 36.5625 5.32812C35 5.32812 33.5313 5.625 32.1563 6.21875C30.7813 6.8125 29.5781 7.625 28.5469 8.65625C27.5156 9.6875 26.7031 10.8906 26.1094 12.2656C25.5156 13.6406 25.2188 15.1094 25.2188 16.6719C25.2188 18.2656 25.5156 19.75 26.1094 21.125C26.7031 22.5 27.5156 23.7031 28.5469 24.7344C29.5781 25.7656 30.7813 26.5781 32.1563 27.1719C33.5313 27.7656 35 28.0625 36.5625 28.0625C36.9375 28.0625 37.3203 28.0469 37.7109 28.0156C38.1016 27.9844 38.4844 27.9219 38.8594 27.8281C38.5156 29.3281 38.1094 30.75 37.6406 32.0938C37.1406 33.4375 36.625 34.6875 36.0938 35.8438C35.5625 37 35.0313 38.0469 34.5 38.9844C34 39.9531 33.5469 40.7812 33.1406 41.4688C32.9219 41.8125 32.7344 42.125 32.5781 42.4062C32.4219 42.6875 32.2969 42.9375 32.2031 43.1562C32.1094 43.375 32.0078 43.6641 31.8984 44.0234C31.7891 44.3828 31.8906 44.6875 32.2031 44.9375C32.2969 45.0312 32.3984 45.1016 32.5078 45.1484C32.6172 45.1953 32.7344 45.2188 32.8594 45.2188C33.1094 45.2188 33.3594 45.1484 33.6094 45.0078C33.8594 44.8672 34.1094 44.7188 34.3594 44.5625C34.6719 44.375 35.0547 44.1172 35.5078 43.7891C35.9609 43.4609 36.5781 43.0156 37.3594 42.4531L37.4063 42.4062C38.7188 41.2188 39.9219 39.9297 41.0156 38.5391C42.1094 37.1484 43.0781 35.6875 43.9219 34.1562C44.6094 32.9062 45.2109 31.6016 45.7266 30.2422C46.2422 28.8828 46.6719 27.4844 47.0156 26.0469C47.5781 23.7344 47.8828 21.7266 47.9297 20.0234C47.9766 18.3203 47.9844 17.2188 47.9531 16.7188ZM45.3281 25.625C44.9844 27.1875 44.5156 28.6719 43.9219 30.0781C43.3594 31.4844 42.7031 32.8359 41.9531 34.1328C41.2031 35.4297 40.3594 36.6562 39.4219 37.8125C38.4531 38.9688 37.4063 40.0625 36.2813 41.0938C36.0938 41.2188 35.8594 41.3828 35.5781 41.5859C35.2969 41.7891 35 42 34.6875 42.2188C35.125 41.4688 35.6406 40.5469 36.2344 39.4531C36.8281 38.3906 37.4141 37.2031 37.9922 35.8906C38.5703 34.5781 39.1094 33.1562 39.6094 31.625C40.1406 30.0938 40.5469 28.4844 40.8281 26.7969L41.1094 25.3438L39.7031 25.8125C39.2031 25.9688 38.6875 26.0938 38.1563 26.1875C37.625 26.2812 37.0938 26.3281 36.5625 26.3281C35.25 26.3281 34.0156 26.0781 32.8594 25.5781C31.6719 25.0781 30.6406 24.3906 29.7656 23.5156C28.8906 22.6406 28.2031 21.6094 27.7031 20.4219C27.2031 19.2656 26.9531 18.0156 26.9531 16.6719C26.9531 15.3594 27.2031 14.1094 27.7031 12.9219C28.2031 11.7656 28.8906 10.75 29.7656 9.875C30.6406 9 31.6563 8.3125 32.8125 7.8125C34 7.3125 35.25 7.0625 36.5625 7.0625C37.9063 7.0625 39.1563 7.3125 40.3125 7.8125C41.5 8.3125 42.5313 9 43.4063 9.875C44.2813 10.75 44.9688 11.7656 45.4688 12.9219C45.9688 14.1094 46.2188 15.3594 46.2188 16.6719V16.7656C46.2188 16.7656 46.2188 16.7734 46.2188 16.7891C46.2188 16.8047 46.2188 16.8125 46.2188 16.8125C46.25 17.2812 46.2422 18.3203 46.1953 19.9297C46.1484 21.5391 45.8594 23.4375 45.3281 25.625Z" fill="url(#paint0_linear_2079_821)"/>
<defs>
<linearGradient id="paint0_linear_2079_821" x1="34.1987" y1="2.13423" x2="-4.33489" y2="13.1187" gradientUnits="userSpaceOnUse">
<stop offset="0.0252672" stop-color="#5BD6DD"/>
<stop offset="0.689" stop-color="#036DED"/>
</linearGradient>
</defs>
</svg>
