<svg width="96" height="107" viewBox="0 0 96 107" fill="none" xmlns="http://www.w3.org/2000/svg">
<path d="M0 26.8629L48.779 0L96 26.8629V83.5232L50.9231 107L29.7366 97.519L0 83.5232V26.8629Z" fill="#5BD6DD"/>
<path d="M20.8872 44C20.7614 44 20.6642 43.9657 20.5955 43.8971C20.5269 43.817 20.4926 43.7198 20.4926 43.6054V32.4024C20.4926 32.2766 20.5269 32.1793 20.5955 32.1107C20.6642 32.0307 20.7614 31.9906 20.8872 31.9906H25.588C26.4458 31.9906 27.1435 32.1336 27.6811 32.4195C28.2301 32.694 28.6304 33.0715 28.882 33.5518C29.1451 34.0322 29.2766 34.5698 29.2766 35.1645C29.2766 35.6335 29.1965 36.0395 29.0364 36.3826C28.8877 36.7143 28.699 36.9888 28.4703 37.2061C28.2415 37.412 28.0185 37.5721 27.8012 37.6865C28.2472 37.9038 28.6418 38.2584 28.9849 38.7502C29.3395 39.242 29.5168 39.8367 29.5168 40.5344C29.5168 41.1635 29.3738 41.7411 29.0879 42.2672C28.8019 42.7933 28.373 43.2165 27.8012 43.5368C27.2407 43.8456 26.543 44 25.7081 44H20.8872ZM22.1739 42.6103H25.4851C26.2285 42.6103 26.8004 42.4102 27.2007 42.0099C27.601 41.6096 27.8012 41.1177 27.8012 40.5344C27.8012 39.9282 27.601 39.4307 27.2007 39.0418C26.8004 38.6415 26.2285 38.4414 25.4851 38.4414H22.1739V42.6103ZM22.1739 37.0689H25.3307C26.0627 37.0689 26.6174 36.903 26.9948 36.5713C27.3723 36.2282 27.561 35.765 27.561 35.1817C27.561 34.5984 27.3723 34.1523 26.9948 33.8435C26.6174 33.5347 26.0627 33.3803 25.3307 33.3803H22.1739V37.0689ZM35.2807 44.1716C34.1027 44.1716 33.1648 43.8113 32.4671 43.0907C31.7694 42.3587 31.3863 41.3637 31.3177 40.1055C31.3062 39.9568 31.3005 39.7681 31.3005 39.5394C31.3005 39.2992 31.3062 39.1047 31.3177 38.9561C31.3634 38.144 31.5521 37.4349 31.8838 36.8287C32.2155 36.2111 32.6673 35.7364 33.2392 35.4047C33.8225 35.073 34.503 34.9072 35.2807 34.9072C36.15 34.9072 36.8763 35.0902 37.4596 35.4562C38.0543 35.8222 38.5061 36.3426 38.8149 37.0174C39.1237 37.6922 39.2782 38.4814 39.2782 39.385V39.6766C39.2782 39.8024 39.2381 39.8997 39.1581 39.9683C39.0894 40.0369 38.9979 40.0712 38.8836 40.0712H32.9475C32.9475 40.0827 32.9475 40.1055 32.9475 40.1398C32.9475 40.1742 32.9475 40.2027 32.9475 40.2256C32.9704 40.6946 33.0733 41.1349 33.2563 41.5467C33.4393 41.947 33.7024 42.2729 34.0455 42.5246C34.3886 42.7762 34.8004 42.902 35.2807 42.902C35.6925 42.902 36.0356 42.8391 36.3101 42.7133C36.5846 42.5875 36.8077 42.4502 36.9792 42.3015C37.1508 42.1414 37.2652 42.0213 37.3223 41.9412C37.4253 41.7926 37.5053 41.7068 37.5625 41.6839C37.6197 41.6496 37.7112 41.6324 37.837 41.6324H38.6605C38.7749 41.6324 38.8664 41.6667 38.935 41.7354C39.0151 41.7926 39.0494 41.8783 39.038 41.9927C39.0265 42.1643 38.935 42.3759 38.7635 42.6275C38.5919 42.8677 38.346 43.1079 38.0257 43.3481C37.7055 43.5882 37.3166 43.7884 36.8591 43.9485C36.4016 44.0972 35.8755 44.1716 35.2807 44.1716ZM32.9475 38.8874H37.6483V38.836C37.6483 38.3213 37.5511 37.8638 37.3567 37.4635C37.1737 37.0632 36.9049 36.7486 36.5503 36.5199C36.1957 36.2797 35.7726 36.1596 35.2807 36.1596C34.7889 36.1596 34.3657 36.2797 34.0112 36.5199C33.6681 36.7486 33.405 37.0632 33.222 37.4635C33.039 37.8638 32.9475 38.3213 32.9475 38.836V38.8874ZM41.7241 44C41.6097 44 41.5125 43.9657 41.4325 43.8971C41.3638 43.817 41.3295 43.7198 41.3295 43.6054V35.4733C41.3295 35.359 41.3638 35.2675 41.4325 35.1988C41.5125 35.1188 41.6097 35.0787 41.7241 35.0787H42.5305C42.6448 35.0787 42.7363 35.1188 42.805 35.1988C42.885 35.2675 42.9251 35.359 42.9251 35.4733V36.2282C43.2224 35.8393 43.5942 35.5248 44.0402 35.2846C44.4977 35.033 45.081 34.9072 45.7902 34.9072C46.5336 34.9072 47.1627 35.073 47.6773 35.4047C48.2035 35.725 48.5981 36.1767 48.8611 36.7601C49.1242 37.3319 49.2557 38.001 49.2557 38.7673V43.6054C49.2557 43.7198 49.2214 43.817 49.1528 43.8971C49.0842 43.9657 48.9927 44 48.8783 44H48.0205C47.9061 44 47.8089 43.9657 47.7288 43.8971C47.6602 43.817 47.6259 43.7198 47.6259 43.6054V38.8531C47.6259 38.0525 47.4314 37.4292 47.0426 36.9831C46.6537 36.5256 46.0818 36.2968 45.3269 36.2968C44.6178 36.2968 44.0459 36.5256 43.6113 36.9831C43.1881 37.4292 42.9765 38.0525 42.9765 38.8531V43.6054C42.9765 43.7198 42.9365 43.817 42.8564 43.8971C42.7878 43.9657 42.6963 44 42.5819 44H41.7241ZM55.2852 44.1716C54.1071 44.1716 53.1693 43.8113 52.4716 43.0907C51.7739 42.3587 51.3907 41.3637 51.3221 40.1055C51.3107 39.9568 51.305 39.7681 51.305 39.5394C51.305 39.2992 51.3107 39.1047 51.3221 38.9561C51.3679 38.144 51.5566 37.4349 51.8883 36.8287C52.22 36.2111 52.6717 35.7364 53.2436 35.4047C53.8269 35.073 54.5075 34.9072 55.2852 34.9072C56.1545 34.9072 56.8807 35.0902 57.464 35.4562C58.0588 35.8222 58.5106 36.3426 58.8194 37.0174C59.1282 37.6922 59.2826 38.4814 59.2826 39.385V39.6766C59.2826 39.8024 59.2426 39.8997 59.1625 39.9683C59.0939 40.0369 59.0024 40.0712 58.888 40.0712H52.952C52.952 40.0827 52.952 40.1055 52.952 40.1398C52.952 40.1742 52.952 40.2027 52.952 40.2256C52.9748 40.6946 53.0778 41.1349 53.2608 41.5467C53.4438 41.947 53.7068 42.2729 54.05 42.5246C54.3931 42.7762 54.8048 42.902 55.2852 42.902C55.697 42.902 56.0401 42.8391 56.3146 42.7133C56.5891 42.5875 56.8121 42.4502 56.9837 42.3015C57.1552 42.1414 57.2696 42.0213 57.3268 41.9412C57.4297 41.7926 57.5098 41.7068 57.567 41.6839C57.6242 41.6496 57.7157 41.6324 57.8415 41.6324H58.665C58.7794 41.6324 58.8709 41.6667 58.9395 41.7354C59.0195 41.7926 59.0539 41.8783 59.0424 41.9927C59.031 42.1643 58.9395 42.3759 58.7679 42.6275C58.5964 42.8677 58.3505 43.1079 58.0302 43.3481C57.71 43.5882 57.3211 43.7884 56.8636 43.9485C56.4061 44.0972 55.88 44.1716 55.2852 44.1716ZM52.952 38.8874H57.6528V38.836C57.6528 38.3213 57.5555 37.8638 57.3611 37.4635C57.1781 37.0632 56.9093 36.7486 56.5548 36.5199C56.2002 36.2797 55.777 36.1596 55.2852 36.1596C54.7934 36.1596 54.3702 36.2797 54.0156 36.5199C53.6725 36.7486 53.4095 37.0632 53.2265 37.4635C53.0435 37.8638 52.952 38.3213 52.952 38.836V38.8874ZM62.5369 44C62.4226 44 62.3253 43.9657 62.2453 43.8971C62.1767 43.817 62.1423 43.7198 62.1423 43.6054V36.4512H60.6841C60.5697 36.4512 60.4725 36.4169 60.3924 36.3483C60.3238 36.2682 60.2895 36.171 60.2895 36.0567V35.4733C60.2895 35.359 60.3238 35.2675 60.3924 35.1988C60.4725 35.1188 60.5697 35.0787 60.6841 35.0787H62.1423V34.2209C62.1423 33.6376 62.2396 33.1287 62.434 32.694C62.6284 32.248 62.9372 31.9048 63.3604 31.6647C63.7951 31.4245 64.3727 31.3044 65.0932 31.3044H67.7353C67.8497 31.3044 67.9412 31.3444 68.0098 31.4245C68.0898 31.4931 68.1299 31.5846 68.1299 31.699V32.2823C68.1299 32.3967 68.0898 32.4939 68.0098 32.5739C67.9412 32.6426 67.8497 32.6769 67.7353 32.6769H65.1275C64.59 32.6769 64.224 32.8198 64.0295 33.1058C63.8351 33.3803 63.7379 33.7806 63.7379 34.3067V35.0787H67.7353C67.8497 35.0787 67.9412 35.1188 68.0098 35.1988C68.0898 35.2675 68.1299 35.359 68.1299 35.4733V43.6054C68.1299 43.7198 68.0898 43.817 68.0098 43.8971C67.9412 43.9657 67.8497 44 67.7353 44H66.9461C66.8203 44 66.7231 43.9657 66.6544 43.8971C66.5858 43.817 66.5515 43.7198 66.5515 43.6054V36.4512H63.7379V43.6054C63.7379 43.7198 63.6978 43.817 63.6178 43.8971C63.5492 43.9657 63.4577 44 63.3433 44H62.5369ZM74.1488 44C73.5083 44 72.9879 43.8799 72.5875 43.6397C72.1872 43.3881 71.8956 43.0392 71.7126 42.5932C71.5296 42.1357 71.4381 41.5981 71.4381 40.9805V36.4512H70.0999C69.9855 36.4512 69.8883 36.4169 69.8082 36.3483C69.7396 36.2682 69.7053 36.171 69.7053 36.0567V35.4733C69.7053 35.359 69.7396 35.2675 69.8082 35.1988C69.8883 35.1188 69.9855 35.0787 70.0999 35.0787H71.4381V32.2137C71.4381 32.0993 71.4724 32.0078 71.541 31.9392C71.6211 31.8591 71.7183 31.8191 71.8327 31.8191H72.639C72.7534 31.8191 72.8449 31.8591 72.9135 31.9392C72.9936 32.0078 73.0336 32.0993 73.0336 32.2137V35.0787H75.161C75.2754 35.0787 75.3669 35.1188 75.4355 35.1988C75.5155 35.2675 75.5556 35.359 75.5556 35.4733V36.0567C75.5556 36.171 75.5155 36.2682 75.4355 36.3483C75.3669 36.4169 75.2754 36.4512 75.161 36.4512H73.0336V40.8604C73.0336 41.398 73.1251 41.8212 73.3081 42.13C73.4911 42.4388 73.8171 42.5932 74.286 42.5932H75.3325C75.4469 42.5932 75.5384 42.6332 75.607 42.7133C75.6871 42.7819 75.7271 42.8734 75.7271 42.9878V43.6054C75.7271 43.7198 75.6871 43.817 75.607 43.8971C75.5384 43.9657 75.4469 44 75.3325 44H74.1488Z" fill="white"/>
<path d="M48.1718 82C47.9585 82 47.7772 81.936 47.6278 81.808C47.4998 81.6587 47.4358 81.4773 47.4358 81.264V63.344L42.1238 67.44C41.9532 67.568 41.7718 67.6213 41.5798 67.6C41.3878 67.5787 41.2278 67.4827 41.0998 67.312L40.2678 66.256C40.1398 66.064 40.0865 65.872 40.1078 65.68C40.1505 65.488 40.2572 65.328 40.4278 65.2L47.4038 59.824C47.5532 59.7173 47.6918 59.6533 47.8198 59.632C47.9478 59.6107 48.0865 59.6 48.2358 59.6H49.8678C50.0812 59.6 50.2518 59.6747 50.3798 59.824C50.5078 59.952 50.5718 60.1227 50.5718 60.336V81.264C50.5718 81.4773 50.5078 81.6587 50.3798 81.808C50.2518 81.936 50.0812 82 49.8678 82H48.1718Z" fill="white"/>
</svg>
