<svg width="44" height="1160" viewBox="0 0 44 1160" fill="none" xmlns="http://www.w3.org/2000/svg">
<path d="M26 4C26 1.79086 24.2091 0 22 0C19.7909 0 18 1.79086 18 4H26ZM0.666666 1138C0.666666 1149.78 10.2179 1159.33 22 1159.33C33.7821 1159.33 43.3333 1149.78 43.3333 1138C43.3333 1126.22 33.7821 1116.67 22 1116.67C10.2179 1116.67 0.666666 1126.22 0.666666 1138ZM18 4V1138H26V4H18Z" fill="#D8D8D8"/>
<path d="M26 4C26 1.79086 24.2091 0 22 0C19.7909 0 18 1.79086 18 4H26ZM0.666666 143C0.666666 154.782 10.2179 164.333 22 164.333C33.7821 164.333 43.3333 154.782 43.3333 143C43.3333 131.218 33.7821 121.667 22 121.667C10.2179 121.667 0.666666 131.218 0.666666 143ZM18 4V143H26V4H18Z" fill="#3B9F98"/>
</svg>
