<svg width="14" height="14" viewBox="0 0 14 14" fill="none" xmlns="http://www.w3.org/2000/svg">
<path d="M6.6705 4.00586C8.5162 4.00586 10.0396 5.5293 10.0396 7.375C10.0396 9.25 8.5162 10.7441 6.6705 10.7441C4.7955 10.7441 3.30136 9.25 3.30136 7.375C3.30136 5.5293 4.7955 4.00586 6.6705 4.00586ZM6.6705 9.57227C7.87167 9.57227 8.83847 8.60547 8.83847 7.375C8.83847 6.17383 7.87167 5.20703 6.6705 5.20703C5.44003 5.20703 4.47323 6.17383 4.47323 7.375C4.47323 8.60547 5.46933 9.57227 6.6705 9.57227ZM10.9478 3.88867C10.9478 4.32812 10.5963 4.67969 10.1568 4.67969C9.71737 4.67969 9.36581 4.32812 9.36581 3.88867C9.36581 3.44922 9.71737 3.09766 10.1568 3.09766C10.5963 3.09766 10.9478 3.44922 10.9478 3.88867ZM13.1744 4.67969C13.233 5.76367 13.233 9.01562 13.1744 10.0996C13.1158 11.1543 12.8814 12.0625 12.1197 12.8535C11.358 13.6152 10.4205 13.8496 9.36581 13.9082C8.28183 13.9668 5.02987 13.9668 3.94589 13.9082C2.8912 13.8496 1.983 13.6152 1.19198 12.8535C0.430265 12.0625 0.19589 11.1543 0.137297 10.0996C0.0787029 9.01562 0.0787029 5.76367 0.137297 4.67969C0.19589 3.625 0.430265 2.6875 1.19198 1.92578C1.983 1.16406 2.8912 0.929688 3.94589 0.871094C5.02987 0.8125 8.28183 0.8125 9.36581 0.871094C10.4205 0.929688 11.358 1.16406 12.1197 1.92578C12.8814 2.6875 13.1158 3.625 13.1744 4.67969ZM11.7682 11.2422C12.1197 10.3926 12.0318 8.3418 12.0318 7.375C12.0318 6.4375 12.1197 4.38672 11.7682 3.50781C11.5338 2.95117 11.0943 2.48242 10.5377 2.27734C9.65878 1.92578 7.608 2.01367 6.6705 2.01367C5.7037 2.01367 3.65292 1.92578 2.80331 2.27734C2.21737 2.51172 1.77792 2.95117 1.54355 3.50781C1.19198 4.38672 1.27987 6.4375 1.27987 7.375C1.27987 8.3418 1.19198 10.3926 1.54355 11.2422C1.77792 11.8281 2.21737 12.2676 2.80331 12.502C3.65292 12.8535 5.7037 12.7656 6.6705 12.7656C7.608 12.7656 9.65878 12.8535 10.5377 12.502C11.0943 12.2676 11.5631 11.8281 11.7682 11.2422Z" fill="url(#paint0_linear_4004_991)"/>
<defs>
<linearGradient id="paint0_linear_4004_991" x1="9.52543" y1="16.182" x2="-1.71429" y2="13.7752" gradientUnits="userSpaceOnUse">
<stop offset="0.0252672" stop-color="#5BD6DD"/>
<stop offset="0.689" stop-color="#036DED"/>
</linearGradient>
</defs>
</svg>
