<svg width="381" height="253" viewBox="0 0 381 253" fill="none" xmlns="http://www.w3.org/2000/svg">
<path fill-rule="evenodd" clip-rule="evenodd" d="M227.241 197.287C222.046 210.355 223.607 236.268 229.124 229.269C232.71 224.72 236.104 195.762 233.304 193.555C229.279 190.382 227.549 196.536 227.241 197.287Z" fill="#00C89C" fill-opacity="0.2"/>
<path fill-rule="evenodd" clip-rule="evenodd" d="M126.567 140.908C117.996 148.904 110.516 158.753 109.332 163.494C106.033 176.497 111.803 175.655 123.045 161.395C133.803 147.747 136.557 131.476 126.567 140.908Z" fill="#00C89C" fill-opacity="0.2"/>
<path fill-rule="evenodd" clip-rule="evenodd" d="M191.39 181.225C189.864 177.044 186.161 179.94 182.287 188.093C174.935 203.718 172.046 218.179 176.395 218.061C181.614 217.919 193.857 187.994 191.39 181.225Z" fill="#00C89C" fill-opacity="0.2"/>
<path fill-rule="evenodd" clip-rule="evenodd" d="M239.074 122.354C237.22 123.445 237.289 123.358 234.96 128.473C229.015 141.234 225.654 157.733 228.542 160.01C232.741 163.32 236.494 148.122 241.92 135.66C245.273 127.807 243.596 119.676 239.074 122.354Z" fill="#00C89C" fill-opacity="0.2"/>
<path fill-rule="evenodd" clip-rule="evenodd" d="M211.175 118.517C213.48 105.155 204.845 109.272 195.777 125.813C191.604 133.446 191.388 139.659 195.331 138.796C198.58 138.093 210.373 123.133 211.175 118.517Z" fill="#00C89C" fill-opacity="0.2"/>
<path fill-rule="evenodd" clip-rule="evenodd" d="M88.9484 91.8181C75.3861 97.8658 74.4351 98.5344 73.6141 102.994C72.605 107.873 74.2611 108.47 83.1001 106.075C98.3114 101.894 105.17 97.5131 105.511 91.682C105.903 85.6075 102.58 85.683 88.9484 91.8181Z" fill="#00C89C" fill-opacity="0.2"/>
<path fill-rule="evenodd" clip-rule="evenodd" d="M138.639 65.3109C138.14 68.4638 139.658 69.2368 147.386 69.5117C160.28 69.8884 165.985 67.1502 165.47 60.7858C164.713 52.3878 139.829 56.6034 138.639 65.3109Z" fill="#00C89C" fill-opacity="0.2"/>
<path fill-rule="evenodd" clip-rule="evenodd" d="M181.164 92.1653C184.884 82.0475 180.368 80.7571 165.21 87.3908C158.047 90.5394 157.753 90.733 156.733 94.1846C153.828 103.81 177.475 101.883 181.164 92.1653Z" fill="#00C89C" fill-opacity="0.2"/>
<path fill-rule="evenodd" clip-rule="evenodd" d="M171.969 18.5309C170.071 8.52357 162.012 -6.62665 157.161 -6.05237C153.25 -5.58932 151.466 -1.88697 151.875 4.25147C152.365 11.7298 157.406 20.8097 163.88 25.9133C163.967 25.982 175.12 35.7681 171.969 18.5309Z" fill="#00C89C" fill-opacity="0.2"/>
<path fill-rule="evenodd" clip-rule="evenodd" d="M94.7954 38.6937C105.653 33.9193 104.014 26.1014 90.3671 18.0396C80.2145 12.0228 71.7394 14.137 71.6633 22.8707C71.615 25.8122 72.9088 26.6907 86.9938 37.7938C89.1817 39.5185 92.1595 39.8794 94.7954 38.6937Z" fill="#00C89C" fill-opacity="0.2"/>
<path fill-rule="evenodd" clip-rule="evenodd" d="M216.689 57.8964C214.04 67.0151 240.171 61.9384 243.984 52.6028C246.019 47.6823 243.289 45.3874 236.892 46.3034C223.63 48.1903 218.589 51.1675 216.689 57.8964Z" fill="#00C89C" fill-opacity="0.2"/>
<path fill-rule="evenodd" clip-rule="evenodd" d="M111.713 -18.757C104.946 -33.0271 94.9366 -38.5048 92.2878 -29.3862C90.0985 -21.7503 103.36 0.476592 109.318 -0.78424C116.667 -2.36773 117.207 -7.19093 111.713 -18.757Z" fill="#00C89C" fill-opacity="0.2"/>
<path fill-rule="evenodd" clip-rule="evenodd" d="M296.004 33.0376C292.414 39.5705 292.378 41.9552 295.99 40.9722C301.531 39.523 316.076 17.6524 313.101 15.3073C310.389 13.1697 302.53 21.16 296.004 33.0376Z" fill="#00C89C" fill-opacity="0.2"/>
<path fill-rule="evenodd" clip-rule="evenodd" d="M255.872 87.3643C252.972 93.023 252.966 96.9906 255.782 96.6572C261.502 96.059 276.719 73.1575 273.307 70.4676C271.995 69.4331 264.64 70.3031 255.872 87.3643Z" fill="#00C89C" fill-opacity="0.2"/>
<path fill-rule="evenodd" clip-rule="evenodd" d="M251.615 66.1358C245.454 68.3718 228.784 85.0199 229.85 87.9875C231.127 91.4059 238.371 87.6124 249.211 77.9996C257.181 70.9489 258.677 63.4747 251.615 66.1358Z" fill="#00C89C" fill-opacity="0.2"/>
<path fill-rule="evenodd" clip-rule="evenodd" d="M183.874 -39.0395C180.41 -44.1819 175.288 -37.8635 175.285 -28.5033C175.272 -8.51178 181.514 5.34477 187.237 -1.91644C189.721 -5.06643 187.04 -34.4164 183.874 -39.0395Z" fill="#00C89C" fill-opacity="0.2"/>
<path fill-rule="evenodd" clip-rule="evenodd" d="M240.387 16.8561C239.387 20.4643 241.905 34.365 243.83 35.8824C246.98 38.3655 251.469 31.4085 250.59 25.3256C248.515 12.4825 242.967 7.82453 240.387 16.8561Z" fill="#00C89C" fill-opacity="0.2"/>
<path fill-rule="evenodd" clip-rule="evenodd" d="M286.148 10.0906C283.682 6.01907 276.233 12.7705 273.391 21.5945C269.29 34.5336 269.154 42.086 273.156 39.7082C276.933 37.4368 287.733 12.7583 286.148 10.0906Z" fill="#00C89C" fill-opacity="0.2"/>
</svg>
